# xmcd
#
# Track frame offsets:
#	150
#	12120
#	27515
#	39235
#	53705
#	63880
#	74450
#	85667
#	97877
#	110792
#	126892
#	136462
#	146722
#	157420
#	166912
#	177480
#	189945
#	202840
#	217892
#	227382
#	237667
#	250202
#	259980
#	276015
#
# Disc length: 3830 seconds
#
# Revision: 0
# Processed by: cddbd v1.4PL0 Copyright (c) Steve Scherf et al.
# Submitted via: MusicWizard 6.0.0
#
DISCID=550ef418
DTITLE=Various Artist - Country Hits
DYEAR=1900
DGENRE=Country
TTITLE0=Johnny Cash - Ring Of Fire
TTITLE1=Kenny Rogers - For The Good Times
TTITLE2=Johnny Cash - Folsom Prison Blues
TTITLE3=Willie Nelson - Will You Remember Mine
TTITLE4=Carl Perkins - Daddy Sang Bass
TTITLE5=Johnny Russel - Act Naturelly
TTITLE6=Jo Anne Houston - The Race Is On
TTITLE7=Del Shannon - She Thinks I Still Care
TTITLE8=Wanda Jackson - Raining In My Heart
TTITLE9=Don Gibson - Green Green Grass Of Home
TTITLE10=Lynn Anderson - Snowbird
TTITLE11=Johnny Paycheck - A11
TTITLE12=Dolly Parton - It Wasn't God Who Made Honky Tonk Angels
TTITLE13=Skeeter Davis - Am I That Easy To Forget
TTITLE14=Patsy Cline - Honky Tonk Merry Go Round
TTITLE15=Jo Anne Houston - Blue Blue Day
TTITLE16=Faron Young - Apartment No. 9
TTITLE17=Willie Nelson - Face Of A Fighter
TTITLE18=George Jones - Lonely Streets
TTITLE19=Billie Jo Spears - It Makes No Difference
TTITLE20=Don Williams - Coming Apart
TTITLE21=Stonewall Jackson - Shake'em Up And Roll'em
TTITLE22=Willie Nelson - You Were Always On My Mind
TTITLE23=Johnny Cash - San Quentin
EXTD=
EXTT0=
EXTT1=
EXTT2=
EXTT3=
EXTT4=
EXTT5=
EXTT6=
EXTT7=
EXTT8=
EXTT9=
EXTT10=
EXTT11=
EXTT12=
EXTT13=
EXTT14=
EXTT15=
EXTT16=
EXTT17=
EXTT18=
EXTT19=
EXTT20=
EXTT21=
EXTT22=
EXTT23=
PLAYORDER=
